<?xml version="1.0" encoding="UTF-8"?>
<svg xmlns="http://www.w3.org/2000/svg" xmlns:xlink="http://www.w3.org/1999/xlink" width="176pt" height="177pt" viewBox="0 0 176 177" version="1.1">
<g id="surface1">
<path style=" stroke:none;fill-rule:nonzero;fill:rgb(12.626648%,33.805847%,68.193054%);fill-opacity:1;" d="M 143.269531 98.632812 C 144.238281 105.976562 139.339844 112.394531 138.386719 113.582031 C 146.507812 111.636719 151.953125 109.316406 158.675781 98.632812 C 165.398438 87.945312 161.613281 71.601562 149.875 66.246094 C 138.902344 61.242188 126.304688 59.5 114.390625 70.601562 C 102.480469 81.703125 97.1875 103.765625 95.652344 115 C 96.8125 115 97.898438 115.074219 97.898438 115.074219 C 97.898438 115.074219 105.417969 86.417969 129.8125 85.863281 C 137.382812 85.691406 143.109375 92.558594 143.269531 98.632812 M 129.789062 132.328125 C 129.945312 141.507812 125.15625 148.851562 116.667969 148.996094 C 108.164062 149.152344 101.371094 141.953125 98.433594 129.421875 C 95.804688 129.421875 94.875 129.261719 94.875 129.261719 C 94.875 129.261719 92.566406 155.269531 111.710938 164.445312 C 123.507812 170.09375 131.953125 159.855469 133.644531 155.878906 C 135.347656 151.902344 138.128906 141.652344 129.789062 132.328125 M 87.949219 176.582031 C 84.972656 171.488281 78.539062 165.902344 76.136719 161.910156 C 69.664062 167.96875 62.550781 171.789062 52.628906 169.566406 C 42.707031 167.367188 27.820312 151.636719 40.96875 130.765625 C 23.609375 134.9375 15.917969 132.605469 10.464844 128.554688 C 5 124.503906 -0.902344 116.996094 0.589844 105.003906 C 2.210938 91.9375 2.535156 88.929688 0.214844 71.449219 C -1.886719 55.609375 14.253906 33.820312 43.269531 46.65625 C 45.320312 47.644531 46.460938 47.382812 45.972656 45.417969 C 45.46875 43.453125 40.542969 31.882812 41.839844 24.152344 C 43.207031 16.050781 46.800781 6.21875 62.308594 1.316406 C 70.453125 -1.265625 78.738281 2.566406 87.949219 2.433594 L 88.070312 2.433594 C 97.285156 2.566406 105.5625 -1.265625 113.714844 1.316406 C 129.21875 6.21875 132.8125 16.050781 134.175781 24.152344 C 135.484375 31.882812 130.546875 43.453125 130.050781 45.417969 C 129.554688 47.382812 130.707031 47.644531 132.75 46.65625 C 161.757812 33.820312 177.902344 55.609375 175.8125 71.449219 C 173.484375 88.929688 173.816406 91.9375 175.433594 105.003906 C 176.921875 116.996094 171.023438 124.503906 165.554688 128.554688 C 160.097656 132.605469 152.410156 134.9375 135.046875 130.765625 C 148.203125 151.636719 133.316406 167.367188 123.390625 169.566406 C 113.476562 171.789062 106.351562 167.96875 99.878906 161.910156 C 97.488281 165.902344 91.058594 171.488281 88.070312 176.582031 Z M 88.070312 9.054688 C 88.070312 9.054688 95.222656 17.378906 103.558594 31.890625 C 111.488281 45.722656 109.800781 62.800781 109.800781 64.8125 C 109.800781 66.820312 109.214844 67.394531 109.65625 67.828125 C 110.089844 68.261719 110.089844 67.6875 111.972656 65.957031 C 123.738281 54.605469 141.707031 57.601562 147.859375 60.125 C 154.699219 62.917969 165.878906 70.359375 166.246094 84.597656 C 166.941406 112.34375 141.148438 118.832031 135.640625 118.570312 C 129.15625 118.269531 132.882812 112.65625 133.8125 111.429688 C 136.464844 107.875 139.023438 103.152344 138.1875 97.757812 C 137.5625 93.742188 132.578125 89.253906 124.910156 91.4375 C 105.011719 97.109375 102.980469 116.984375 102.980469 116.984375 L 106.171875 122.449219 C 106.171875 122.449219 104.429688 124.46875 102.980469 126.765625 C 104.703125 137.6875 110.230469 145.171875 118.375 143.875 C 126.496094 142.578125 124.308594 130.214844 124.019531 128.0625 C 123.738281 125.898438 125.277344 120.289062 133.410156 124.3125 C 159.96875 137.867188 172.507812 118.628906 170.332031 105.195312 C 167.679688 88.855469 170.378906 77.019531 170.8125 71.738281 C 171.335938 65.46875 169.84375 56.476562 162.785156 51.730469 C 151.035156 43.824219 142.894531 48.132812 133.609375 51.585938 C 124.308594 55.035156 124.308594 45.980469 125.480469 43.105469 C 126.640625 40.230469 128.964844 32.46875 129.242188 26.285156 C 129.542969 20.097656 125.90625 13.347656 119.953125 8.894531 C 114.019531 4.433594 104.429688 4.867188 101.238281 5.734375 C 98.042969 6.597656 88.070312 7.042969 88.070312 7.042969 L 87.949219 7.042969 C 87.949219 7.042969 77.976562 6.597656 74.78125 5.734375 C 71.59375 4.867188 62.011719 4.433594 56.058594 8.894531 C 50.113281 13.347656 46.480469 20.097656 46.769531 26.285156 C 47.0625 32.46875 49.386719 40.230469 50.542969 43.105469 C 51.707031 45.980469 51.707031 55.035156 42.414062 51.585938 C 33.121094 48.132812 24.988281 43.824219 13.238281 51.730469 C 6.175781 56.476562 4.683594 65.46875 5.207031 71.738281 C 5.644531 77.019531 8.335938 88.855469 5.691406 105.195312 C 3.507812 118.628906 16.046875 137.867188 42.609375 124.3125 C 50.738281 120.289062 52.289062 125.898438 52 128.0625 C 51.707031 130.214844 49.527344 142.578125 57.652344 143.875 C 65.785156 145.171875 71.300781 137.6875 73.046875 126.765625 C 71.59375 124.46875 69.847656 122.449219 69.847656 122.449219 L 73.046875 116.984375 C 73.046875 116.984375 71.019531 97.109375 51.113281 91.4375 C 43.445312 89.253906 38.460938 93.742188 37.832031 97.757812 C 36.980469 103.152344 39.558594 107.875 42.214844 111.429688 C 43.132812 112.65625 46.863281 118.269531 40.375 118.570312 C 34.867188 118.832031 9.082031 112.34375 9.773438 84.597656 C 10.136719 70.359375 21.335938 62.917969 28.160156 60.125 C 34.3125 57.601562 52.289062 54.605469 64.042969 65.957031 C 65.929688 67.6875 65.929688 68.261719 66.367188 67.828125 C 66.800781 67.394531 66.21875 66.820312 66.21875 64.8125 C 66.21875 62.800781 64.527344 45.722656 72.460938 31.890625 C 80.785156 17.378906 87.949219 9.054688 87.949219 9.054688 Z M 46.210938 85.863281 C 70.59375 86.417969 78.113281 115.074219 78.113281 115.074219 C 78.113281 115.074219 79.207031 115 80.371094 115 C 78.832031 103.765625 73.539062 81.703125 61.625 70.601562 C 49.714844 59.5 37.121094 61.242188 26.152344 66.246094 C 14.414062 71.601562 10.613281 87.945312 17.339844 98.632812 C 24.070312 109.316406 29.507812 111.636719 37.644531 113.582031 C 36.675781 112.394531 31.785156 105.976562 32.753906 98.632812 C 32.917969 92.558594 38.636719 85.691406 46.210938 85.863281 M 42.375 155.878906 C 44.070312 159.855469 52.503906 170.09375 64.304688 164.445312 C 83.457031 155.269531 81.144531 129.261719 81.144531 129.261719 C 81.144531 129.261719 80.214844 129.421875 77.589844 129.421875 C 74.648438 141.953125 67.855469 149.152344 59.363281 148.996094 C 50.867188 148.851562 46.074219 141.507812 46.234375 132.328125 C 37.890625 141.652344 40.675781 151.902344 42.375 155.878906 M 88.070312 168.125 C 89.25 165.949219 93.960938 162.945312 96.523438 157.789062 C 87.742188 142.769531 90.089844 125.144531 90.089844 125.144531 L 98.589844 124.53125 L 100.136719 122.222656 L 97.8125 119.484375 L 90.550781 119.328125 C 90.707031 111.828125 93.800781 99.128906 93.800781 99.128906 L 88.070312 93.476562 L 87.949219 93.476562 L 82.222656 99.128906 C 82.222656 99.128906 85.3125 111.828125 85.464844 119.328125 L 78.203125 119.484375 L 75.890625 122.222656 L 77.4375 124.53125 L 85.929688 125.144531 C 85.929688 125.144531 88.273438 142.769531 79.492188 157.789062 C 82.050781 162.945312 86.769531 165.949219 87.949219 168.125 Z M 88.070312 86.699219 C 88.070312 86.699219 89.558594 88.539062 94.996094 93.777344 C 96.09375 91 102.933594 72.984375 103.859375 69.597656 C 104.800781 66.207031 106.664062 55.277344 103.246094 43.417969 C 99.832031 31.554688 88.070312 16.011719 88.070312 16.011719 L 87.949219 16.011719 C 87.949219 16.011719 76.195312 31.554688 72.773438 43.417969 C 69.347656 55.277344 71.21875 66.207031 72.152344 69.597656 C 73.082031 72.984375 79.925781 91 81.015625 93.777344 C 86.460938 88.539062 87.949219 86.699219 87.949219 86.699219 Z M 88.070312 86.699219 "/>
</g>
</svg>
